<?xml version="1.0" encoding="UTF-8" standalone="no"?>
<svg width="361.244mm" height="33.8667mm"
 viewBox="0 0 1024 96"
 xmlns="http://www.w3.org/2000/svg" xmlns:xlink="http://www.w3.org/1999/xlink"  version="1.2" baseProfile="tiny">
<title>Qt Svg Document</title>
<desc>Generated with Qt</desc>
<defs>
</defs>
<g fill="none" stroke="black" stroke-width="1" fill-rule="evenodd" stroke-linecap="square" stroke-linejoin="bevel" >

<g fill="#ffffff" fill-opacity="1" stroke="none" transform="matrix(1,0,0,1,0,0)"
font-family="Helvetica" font-size="12" font-weight="400" font-style="normal" 
>
<path vector-effect="non-scaling-stroke" fill-rule="evenodd" d="M0,0 L1024,0 L1024,96 L0,96 L0,0"/>
<path vector-effect="non-scaling-stroke" fill-rule="evenodd" d="M0,0 L1024,0 L1024,96 L0,96 L0,0"/>
</g>

<g fill="#ffffff" fill-opacity="1" stroke="none" transform="matrix(0.817738,0,0,0.817738,13.6619,13.693)"
font-family="Helvetica" font-size="12" font-weight="400" font-style="normal" 
>
<path vector-effect="non-scaling-stroke" fill-rule="nonzero" d="M73.684,20.2 L69.904,22.695 L63.216,17.829 L60.143,21.671 L53.481,17.727 L48,35.505 L42.518,17.728 L35.857,21.672 L32.784,17.83 L26.096,22.696 L22.316,20.2 L17.11,25.328 L14.751,24.417 L14.751,65.118 L48,77.947 L81.25,65.118 L81.25,24.417 L78.89,25.328 L73.684,20.2 M41.646,19.987 L46.121,34.5 L36.805,22.854 L41.646,19.987 M32.508,19.885 L44.443,34.803 L27.434,23.578 L32.508,19.885 M22.503,22.121 L41.791,34.851 L18.646,25.92 L22.503,22.121 M47.25,76.05 L16.25,64.089 L16.25,26.604 L47.25,38.565 L47.25,76.05 M73.497,22.121 L77.355,25.921 L54.209,34.852 L73.497,22.121 M63.493,19.885 L68.567,23.577 L51.558,34.804 L63.493,19.885 M54.354,19.987 L59.196,22.855 L49.88,34.501 L54.354,19.987 M79.75,64.089 L48.75,76.05 L48.75,38.565 L79.75,26.604 L79.75,64.089"/>
<path vector-effect="non-scaling-stroke" fill-rule="nonzero" d="M28.228,86.25 C26.992,86.25 25.986,87.256 25.986,88.492 C25.986,89.728 26.992,90.734 28.228,90.734 C29.464,90.734 30.47,89.728 30.47,88.492 C30.47,87.256 29.464,86.25 28.228,86.25 M28.228,90.234 C27.268,90.234 26.486,89.452 26.486,88.492 C26.486,87.532 27.268,86.75 28.228,86.75 C29.188,86.75 29.97,87.532 29.97,88.492 C29.97,89.452 29.188,90.234 28.228,90.234 "/>
<path vector-effect="non-scaling-stroke" fill-rule="nonzero" d="M8.512,27.813 L7.521,29.82 L5.305,30.142 L6.909,31.705 L6.53,33.913 L8.512,32.871 L10.494,33.913 L10.116,31.706 L11.72,30.143 L9.503,29.82 L8.512,27.813 M9.578,31.531 L9.829,32.999 L8.511,32.307 L7.193,32.999 L7.444,31.531 L6.378,30.491 L7.852,30.277 L8.511,28.942 L9.17,30.277 L10.644,30.491 L9.578,31.531"/>
<path vector-effect="non-scaling-stroke" fill-rule="nonzero" d="M28.975,8.205 L28.291,6.819 L27.607,8.205 L26.077,8.428 L27.184,9.507 L26.923,11.03 L28.291,10.311 L29.659,11.03 L29.398,9.507 L30.505,8.428 L28.975,8.205 M28.995,10.116 L28.291,9.746 L27.587,10.116 L27.721,9.332 L27.151,8.776 L27.939,8.662 L28.291,7.949 L28.643,8.662 L29.431,8.776 L28.861,9.332 L28.995,10.116"/>
<path vector-effect="non-scaling-stroke" fill-rule="nonzero" d="M87.086,69.951 L88.454,70.67 L88.193,69.147 L89.3,68.068 L87.77,67.845 L87.086,66.459 L86.402,67.845 L84.872,68.068 L85.979,69.147 L85.718,70.67 L87.086,69.951 M85.947,68.416 L86.735,68.302 L87.087,67.589 L87.439,68.302 L88.227,68.416 L87.657,68.972 L87.791,69.756 L87.087,69.386 L86.383,69.756 L86.517,68.972 L85.947,68.416"/>
<path vector-effect="non-scaling-stroke" fill-rule="nonzero" d="M87.086,14.136 L86.184,16.913 L83.265,16.913 L85.626,18.63 L84.724,21.406 L87.086,19.69 L89.448,21.406 L88.546,18.63 L90.907,16.913 L87.988,16.913 L87.086,14.136 M87.958,18.438 L88.497,20.096 L87.086,19.071 L85.675,20.096 L86.214,18.438 L84.803,17.412 L86.548,17.412 L87.087,15.753 L87.626,17.412 L89.371,17.412 L87.958,18.438"/>
<path vector-effect="non-scaling-stroke" fill-rule="nonzero" d="M79.13,5.267 C77.894,5.267 76.888,6.273 76.888,7.509 C76.888,8.745 77.894,9.751 79.13,9.751 C80.366,9.751 81.372,8.745 81.372,7.509 C81.372,6.273 80.367,5.267 79.13,5.267 M79.13,9.251 C78.17,9.251 77.388,8.469 77.388,7.509 C77.388,6.549 78.17,5.767 79.13,5.767 C80.09,5.767 80.872,6.549 80.872,7.509 C80.872,8.469 80.091,9.251 79.13,9.251 "/>
<path vector-effect="non-scaling-stroke" fill-rule="nonzero" d="M88.623,47.201 C87.638,47.201 86.837,48.002 86.837,48.987 C86.837,49.972 87.638,50.773 88.623,50.773 C89.608,50.773 90.409,49.972 90.409,48.987 C90.409,48.002 89.607,47.201 88.623,47.201 M88.623,50.273 C87.914,50.273 87.337,49.696 87.337,48.987 C87.337,48.278 87.914,47.701 88.623,47.701 C89.332,47.701 89.909,48.278 89.909,48.987 C89.909,49.696 89.332,50.273 88.623,50.273 "/>
<path vector-effect="non-scaling-stroke" fill-rule="nonzero" d="M12.597,17.155 C12.597,18.457 13.656,19.516 14.958,19.516 C16.26,19.516 17.319,18.457 17.319,17.155 C17.319,15.853 16.26,14.794 14.958,14.794 C13.656,14.794 12.597,15.854 12.597,17.155 M14.958,15.294 C15.984,15.294 16.819,16.129 16.819,17.155 C16.819,18.181 15.984,19.016 14.958,19.016 C13.932,19.016 13.097,18.181 13.097,17.155 C13.097,16.129 13.932,15.294 14.958,15.294 "/>
<path vector-effect="non-scaling-stroke" fill-rule="nonzero" d="M21.983,88.514 C22.309,88.597 22.638,88.67 22.971,88.737 L23.07,88.247 C22.745,88.182 22.424,88.109 22.106,88.03 L21.983,88.514"/>
<path vector-effect="non-scaling-stroke" fill-rule="nonzero" d="M7.146,68.852 C7.146,68.525 7.154,68.197 7.17,67.867 L6.671,67.843 C6.654,68.18 6.646,68.517 6.646,68.852 C6.646,69.18 6.654,69.507 6.67,69.832 L7.169,69.808 C7.153,69.49 7.146,69.172 7.146,68.852 "/>
<path vector-effect="non-scaling-stroke" fill-rule="nonzero" d="M6.864,71.81 C6.961,72.463 7.092,73.119 7.252,73.76 L7.737,73.638 C7.58,73.013 7.452,72.373 7.358,71.737 L6.864,71.81"/>
<path vector-effect="non-scaling-stroke" fill-rule="nonzero" d="M9.529,79.254 C9.868,79.821 10.24,80.378 10.633,80.909 L11.035,80.612 C10.652,80.093 10.289,79.55 9.958,78.997 L9.529,79.254"/>
<path vector-effect="non-scaling-stroke" fill-rule="nonzero" d="M14.832,85.124 C15.364,85.52 15.92,85.893 16.485,86.232 L16.743,85.803 C16.192,85.472 15.65,85.108 15.131,84.722 L14.832,85.124"/>
<path vector-effect="non-scaling-stroke" fill-rule="nonzero" d="M11.893,82.448 C12.334,82.938 12.807,83.412 13.297,83.858 L13.634,83.488 C13.156,83.053 12.695,82.591 12.264,82.113 L11.893,82.448"/>
<path vector-effect="non-scaling-stroke" fill-rule="nonzero" d="M7.83,75.663 C8.052,76.282 8.308,76.9 8.592,77.5 L9.044,77.286 C8.767,76.701 8.517,76.098 8.301,75.494 L7.83,75.663"/>
<path vector-effect="non-scaling-stroke" fill-rule="nonzero" d="M18.24,87.173 C18.837,87.456 19.456,87.713 20.078,87.936 L20.247,87.465 C19.64,87.248 19.037,86.997 18.454,86.721 L18.24,87.173"/>
<path vector-effect="non-scaling-stroke" fill-rule="nonzero" d="M7.533,64.949 L7.043,64.851 C6.977,65.184 6.918,65.516 6.869,65.849 L7.363,65.922 C7.412,65.599 7.469,65.274 7.533,64.949 "/>
<path vector-effect="non-scaling-stroke" fill-rule="nonzero" d="M89.182,76.983 L89.68,77.029 C89.711,76.693 89.73,76.354 89.737,76.012 L89.237,76.002 C89.229,76.332 89.211,76.659 89.182,76.983 "/>
<path vector-effect="non-scaling-stroke" fill-rule="nonzero" d="M82.51,87.442 L82.762,87.874 C83.401,87.501 84.015,87.074 84.588,86.604 L84.271,86.217 C83.718,86.67 83.125,87.082 82.51,87.442 "/>
<path vector-effect="non-scaling-stroke" fill-rule="nonzero" d="M88.121,81.128 L88.58,81.327 C88.875,80.648 89.118,79.94 89.301,79.223 L88.816,79.1 C88.639,79.791 88.405,80.474 88.121,81.128 "/>
<path vector-effect="non-scaling-stroke" fill-rule="nonzero" d="M85.817,84.731 L86.191,85.063 C86.684,84.508 87.135,83.911 87.533,83.29 L87.112,83.02 C86.729,83.62 86.293,84.196 85.817,84.731 "/>
<path vector-effect="non-scaling-stroke" fill-rule="nonzero" d="M78.523,88.986 L78.627,89.475 C79.35,89.321 80.066,89.107 80.758,88.839 L80.577,88.373 C79.912,88.631 79.22,88.837 78.523,88.986 "/>
<path vector-effect="non-scaling-stroke" fill-rule="nonzero" d="M75.408,89.281 L75.398,89.781 C75.494,89.783 75.59,89.784 75.686,89.784 C75.931,89.784 76.174,89.778 76.416,89.765 L76.391,89.266 C76.065,89.282 75.738,89.288 75.408,89.281 "/>
<path vector-effect="non-scaling-stroke" fill-rule="nonzero" d="M88.373,32.377 L88.873,32.377 L88.873,34.377 L88.373,34.377 L88.373,32.377"/>
<path vector-effect="non-scaling-stroke" fill-rule="nonzero" d="M88.373,28.377 L88.873,28.377 L88.873,30.377 L88.373,30.377 L88.373,28.377"/>
<path vector-effect="non-scaling-stroke" fill-rule="nonzero" d="M88.373,36.377 L88.873,36.377 L88.873,38.377 L88.373,38.377 L88.373,36.377"/>
<path vector-effect="non-scaling-stroke" fill-rule="nonzero" d="M88.373,40.377 L88.873,40.377 L88.873,42.377 L88.373,42.377 L88.373,40.377"/>
</g>

<g fill="#ffffff" fill-opacity="1" stroke="none" transform="matrix(4.09836,0,0,4.09836,95.8689,-0.11475)"
font-family="Helvetica" font-size="12" font-weight="400" font-style="normal" 
>
<path vector-effect="non-scaling-stroke" fill-rule="nonzero" d="M9.64,7.74 L9.64,6.78 L13.74,6.78 L13.74,7.74 L12.46,7.74 L9.16,11.62 L13.86,19.04 L15.02,19.04 L15.02,20 L8.42,20 L8.42,19.04 L9.52,19.04 L6.44,14.06 L5.96,14.06 L5.96,19.04 L7.42,19.04 L7.42,20 L0.52,20 L0.52,19.04 L2.16,19.04 L2.16,7.74 L0.52,7.74 L0.52,6.78 L7.94,6.78 L7.94,7.74 L5.96,7.74 L5.96,12.92 L6.44,12.92 L10.92,7.74 L9.64,7.74 L9.64,7.74 M15.82,17.54 L15.82,11.82 L14.5,11.82 L14.5,10.86 L15.9,10.86 C16.6,10.08 17.28,9.14 17.62,7.6 L19.42,7.6 L19.42,10.86 L21.74,10.86 L21.74,11.82 L19.42,11.82 L19.42,17.3 C19.42,18.2 19.6,18.68 20.16,18.68 C20.58,18.68 20.96,18.48 21.4,17.38 L22.4,17.8 C21.76,19.02 21.04,20.2 19.04,20.2 C17.36,20.2 15.82,19.38 15.82,17.54 L15.82,17.54 M22.64,17.9 C22.64,15.62 25.32,14.84 28.04,14.84 L28.04,13.24 C28.04,11.9 27.68,11.46 26.94,11.46 C26.08,11.46 25.78,11.96 25.78,13.04 C25.78,13.5 25.8,13.84 25.86,14.22 C23.72,14.38 23.06,13.58 23.06,12.66 C23.06,11.46 24.26,10.58 27.32,10.58 C30.3,10.58 31.64,11.42 31.64,13.6 L31.64,18.24 C31.64,18.58 31.72,18.68 31.92,18.68 C32.2,18.68 32.32,18.48 32.64,17.4 L33.68,17.64 C33.16,19.9 31.98,20.2 31.04,20.2 C29.74,20.2 29.02,19.64 28.6,18.6 L28.56,18.6 C27.96,19.54 27.2,20.28 25.6,20.28 C23.92,20.28 22.64,19.46 22.64,17.9 L22.64,17.9 M26.04,17.6 C26.04,18.44 26.34,18.7 26.8,18.7 C27.36,18.7 28.04,18.12 28.04,17.08 L28.04,15.94 C26.56,15.94 26.04,16.58 26.04,17.6 M34.52,20.14 L34.52,6.6 L33.2,6.6 L33.2,5.64 L38.12,5.64 L38.12,10.54 C38.12,11.46 37.98,12.04 37.98,12.04 L38.02,12.04 C38.42,11.3 39.22,10.58 40.74,10.58 C43.06,10.58 44.64,12.26 44.64,15.18 C44.64,18.78 42.22,20.28 40.2,20.28 C37.84,20.28 37.26,18.38 37.26,18.38 L35.6,20.14 L34.52,20.14 L34.52,20.14 M38.04,15.6 C38.04,17.68 38.86,18.86 39.58,18.86 C40.3,18.86 40.92,17.96 40.92,15.3 C40.92,12.84 40.38,12 39.78,12 C39.08,12 38.04,13.34 38.04,15.6 M45.64,15.4 C45.64,11.94 47.62,10.58 50.66,10.58 C53.44,10.58 54.98,11.86 54.98,14.4 L54.98,15.58 L49.32,15.58 L49.32,16.4 C49.32,18.64 50.06,19.26 51.24,19.26 C52.5,19.26 53.54,18.38 53.84,17.18 L54.92,17.34 C54.5,18.92 53.36,20.28 50.52,20.28 C47.66,20.28 45.64,18.88 45.64,15.4 L45.64,15.4 M49.34,14.48 L51.4,14.48 L51.4,13.48 C51.4,11.96 51.1,11.46 50.58,11.46 C49.86,11.46 49.46,11.84 49.34,14.48 M55.98,15.4 C55.98,11.94 57.96,10.58 61,10.58 C63.78,10.58 65.32,11.86 65.32,14.4 L65.32,15.58 L59.66,15.58 L59.66,16.4 C59.66,18.64 60.4,19.26 61.58,19.26 C62.84,19.26 63.88,18.38 64.18,17.18 L65.26,17.34 C64.84,18.92 63.7,20.28 60.86,20.28 C58,20.28 55.98,18.88 55.98,15.4 L55.98,15.4 M59.68,14.48 L61.74,14.48 L61.74,13.48 C61.74,11.96 61.44,11.46 60.92,11.46 C60.2,11.46 59.8,11.84 59.68,14.48 "/>
</g>
</g>
</svg>
